<!DOCTYPE svg PUBLIC "-//W3C//DTD SVG 1.1//EN" "http://www.w3.org/Graphics/SVG/1.1/DTD/svg11.dtd">
<!-- Uploaded to: SVG Repo, www.svgrepo.com, Transformed by: SVG Repo Mixer Tools -->
<svg height="800px" width="800px" version="1.1" id="Layer_1" xmlns="http://www.w3.org/2000/svg" xmlns:xlink="http://www.w3.org/1999/xlink" viewBox="0 0 512.002 512.002" xml:space="preserve" fill="#143319" stroke="#143319" stroke-width="8.192032">
<g id="SVGRepo_bgCarrier" stroke-width="0"/>
<g id="SVGRepo_tracerCarrier" stroke-linecap="round" stroke-linejoin="round"/>
<g id="SVGRepo_iconCarrier"> <path style="fill:#689554;" d="M452.683,119.18c0-23.614-19.143-42.757-42.757-42.757h-28.281c-7.727,0-14.102-5.336-16.397-12.715 c-5.413-17.405-21.649-30.042-40.835-30.042H187.591c-23.614,0-42.757,19.143-42.757,42.757v102.616h307.849V119.18z"/> <g> <path style="fill:#4ae92b;" d="M375.721,110.628h-22.303c-10.643,0-19.667-6.84-23.813-16.643 c-6.49-15.346-21.686-26.114-39.396-26.114H144.835v59.86h-42.757v68.411c0,23.614,19.142,42.757,42.757,42.757h128.27v-68.411 h145.373v-17.103C418.478,129.772,399.335,110.628,375.721,110.628z"/> <path style="fill:#4ae92b;" d="M144.834,50.769v0.474C145.093,50.9,145.143,50.707,144.834,50.769z"/> </g> <g> <path style="fill:#58901f;" d="M245.613,76.423H110.629c-19.186,0-35.421,12.638-40.835,30.042 c-2.295,7.378-8.671,12.715-16.397,12.715h-0.79c-22.331,0-42.274,16.327-44.393,38.557c-2.432,25.501,17.557,46.957,42.556,46.957 h119.719c19.186,0,35.421-12.638,40.835-30.042c2.295-7.378,8.671-12.715,16.397-12.715h19.73c25,0,44.988-21.455,42.556-46.957 C287.887,92.75,267.945,76.423,245.613,76.423z"/> <path style="fill:#58901f;" d="M459.397,119.18h-83.676c-19.186,0-35.421,12.638-40.835,30.042 c-2.295,7.378-8.671,12.715-16.397,12.715h-43.547c-22.331,0-42.274,16.327-44.393,38.557 c-2.432,25.501,17.557,46.957,42.556,46.957h85.514c19.186,0,35.421-12.638,40.835-30.042c2.295-7.378,8.671-12.715,16.397-12.715 h45.384c25,0,44.988-21.455,42.556-46.957C501.671,135.506,481.729,119.18,459.397,119.18z"/> </g> <g> <path style="fill:#689554;" d="M93.727,157.736c2.12-22.23,22.063-38.556,44.393-38.556h0.79c7.727,0,14.102-5.337,16.397-12.715 c5.413-17.405,21.648-30.042,40.835-30.042h-85.514c-19.186,0-35.421,12.637-40.835,30.042 c-2.295,7.378-8.671,12.715-16.397,12.715h-0.79c-22.332,0-42.274,16.326-44.393,38.556c-2.432,25.501,17.556,46.958,42.556,46.958 h85.514C111.283,204.693,91.295,183.238,93.727,157.736z"/> <path style="fill:#689554;" d="M273.306,200.492c2.12-22.23,22.063-38.556,44.393-38.556h-42.757 c-22.332,0-42.274,16.326-44.393,38.556c-2.432,25.501,17.556,46.958,42.556,46.958h42.757 C290.861,247.45,270.874,225.995,273.306,200.492z"/> <path style="fill:#689554;" d="M377.728,151.107c7.067-13.874,21.485-23.376,38.122-23.376h-42.757 c-19.186,0-35.421,12.637-40.835,30.042c-2.295,7.378-8.671,12.715-16.397,12.715h31.085 C360.085,170.488,371.765,162.814,377.728,151.107z"/> </g> <path d="M511.771,156.976c-2.43-25.476-25.078-45.467-51.708-45.797c-3.849-24.208-24.863-42.773-50.138-42.773h-28.281 c-3.973,0-7.404-2.779-8.743-7.078c-6.637-21.34-26.123-35.678-48.489-35.678H187.59c-25.268,0-46.279,18.556-50.135,42.757h-26.828 c-22.366,0-41.853,14.338-48.489,35.678c-1.337,4.299-4.768,7.078-8.743,7.078h-0.79c-26.919,0-49.925,20.123-52.375,45.812 c-1.363,14.296,3.361,28.55,12.961,39.108c9.606,10.566,23.302,16.627,37.577,16.627h43.93c3.856,24.2,24.866,42.757,50.135,42.757 h18.41c3.757,19.46,20.909,34.205,41.45,34.205h43.291v180.648h-51.843c-4.427,0-8.017,3.589-8.017,8.017s3.589,8.017,8.017,8.017 H315.86c4.427,0,8.017-3.589,8.017-8.017s-3.589-8.017-8.017-8.017h-51.843V323.877h9.086c23.281,0,42.222-18.941,42.222-42.222 v-26.189h43.291c22.366,0,41.853-14.338,48.489-35.678c1.337-4.299,4.768-7.078,8.743-7.078h45.384 c14.274,0,27.97-6.061,37.577-16.627C508.41,185.525,513.135,171.27,511.771,156.976z M187.591,41.683h136.822 c15.305,0,28.639,9.808,33.179,24.407c3.414,10.976,13.08,18.35,24.053,18.35h28.282c16.396,0,30.166,11.421,33.796,26.723h-68.001 c-22.366,0-41.853,14.339-48.489,35.678c-1.337,4.299-4.768,7.078-8.743,7.078h-34.03c0.188-0.2,0.384-0.39,0.569-0.593 c9.6-10.558,14.324-24.813,12.961-39.108c-2.45-25.689-25.455-45.812-52.375-45.812h-91.817 C157.425,53.104,171.195,41.683,187.591,41.683z M235.528,238.84c0.185,0.203,0.381,0.393,0.569,0.593h-57.591v-27.35 c18.9-2.969,34.643-16.307,40.473-35.051c1.337-4.299,4.768-7.078,8.743-7.078h8.95c-7.808,7.955-13.008,18.308-14.102,29.778 C221.204,214.027,225.929,228.282,235.528,238.84z M25.056,185.298c-6.664-7.33-9.812-16.847-8.862-26.8 c1.674-17.552,17.668-31.3,36.413-31.3h0.79c10.972,0,20.639-7.374,24.053-18.35c4.541-14.598,17.874-24.407,33.179-24.407h134.984 c18.745,0,34.739,13.748,36.413,31.301c0.949,9.953-2.198,19.469-8.862,26.8c-6.575,7.232-15.946,11.38-25.713,11.38h-19.73 c-10.972,0-20.639,7.374-24.053,18.35c-4.541,14.598-17.874,24.407-33.179,24.407H50.769 C41.002,196.676,31.631,192.529,25.056,185.298z M111.038,212.71h51.433v26.723h-17.637 C128.438,239.433,114.668,228.013,111.038,212.71z M204.694,273.639c-11.645,0-21.534-7.642-24.928-18.172h68.22v18.172H204.694z M299.293,281.656c0,14.44-11.749,26.189-26.189,26.189h-9.086v-52.377h9.086h26.189V281.656z M486.947,185.298 c-6.575,7.232-15.946,11.38-25.713,11.38H415.85c-10.972,0-20.639,7.374-24.053,18.35c-4.541,14.598-17.874,24.407-33.179,24.407 h-85.514c-9.767,0-19.138-4.147-25.713-11.38c-6.664-7.33-9.812-16.847-8.862-26.8c1.674-17.552,17.668-31.301,36.413-31.301h43.547 c10.972,0,20.639-7.374,24.053-18.35c4.541-14.598,17.874-24.407,33.179-24.407h83.676c18.745,0,34.739,13.748,36.413,31.301 C496.759,168.449,493.612,177.967,486.947,185.298z"/> </g>
</svg>